{
  "accessors": [
    {
      "bufferView": 2,
      "componentType": 5126,
      "count": 3969,
      "max": [
        0.49341437220573425,
        0.022229880094528198,
        0.9999655485153198
      ],
      "min": [
        -0.518139123916626,
        -0.04861096665263176,
        -1.0010379552841187
      ],
      "type": "VEC3"
    },
    {
      "bufferView": 2,
      "byteOffset": 47628,
      "componentType": 5126,
      "count": 3969,
      "max": [
        0.47585636377334595,
        1.0,
        0.2141096591949463
      ],
      "min": [
        -0.3552165925502777,
        0.8782427906990051,
        -0.20961667597293854
      ],
      "type": "VEC3"
    },
    {
      "bufferView": 1,
      "componentType": 5126,
      "count": 3969,
      "max": [
        0.9855812788009644,
        0.999901533126831
      ],
      "min": [
        0.013039366342127323,
        9.860015416052192e-05
      ],
      "type": "VEC2"
    },
    {
      "bufferView": 0,
      "componentType": 5125,
      "count": 23064,
      "type": "SCALAR"
    },
    {
      "bufferView": 2,
      "byteOffset": 95256,
      "componentType": 5126,
      "count": 128,
      "max": [
        0.45350247621536255,
        0.0586761049926281,
        1.0492815971374512
      ],
      "min": [
        -0.43983274698257446,
        -0.05867614224553108,
        -1.0492815971374512
      ],
      "type": "VEC3"
    },
    {
      "bufferView": 2,
      "byteOffset": 96792,
      "componentType": 5126,
      "count": 128,
      "max": [
        4.670591522426548e-07,
        1.0,
        1.0
      ],
      "min": [
        -6.672150334452454e-07,
        -1.0,
        -1.0
      ],
      "type": "VEC3"
    },
    {
      "bufferView": 3,
      "componentType": 5126,
      "count": 128,
      "max": [
        1.0,
        0.7071061730384827,
        1.0,
        1.0
      ],
      "min": [
        -1.0,
        -0.7071061730384827,
        -1.0,
        1.0
      ],
      "type": "VEC4"
    },
    {
      "bufferView": 1,
      "byteOffset": 31752,
      "componentType": 5126,
      "count": 128,
      "max": [
        0.0,
        0.0
      ],
      "min": [
        0.0,
        0.0
      ],
      "type": "VEC2"
    },
    {
      "bufferView": 1,
      "byteOffset": 32776,
      "componentType": 5126,
      "count": 128,
      "max": [
        0.0,
        0.0
      ],
      "min": [
        0.0,
        0.0
      ],
      "type": "VEC2"
    },
    {
      "bufferView": 1,
      "byteOffset": 33800,
      "componentType": 5126,
      "count": 128,
      "max": [
        0.0,
        0.0
      ],
      "min": [
        0.0,
        0.0
      ],
      "type": "VEC2"
    },
    {
      "bufferView": 1,
      "byteOffset": 34824,
      "componentType": 5126,
      "count": 128,
      "max": [
        0.0,
        0.0
      ],
      "min": [
        0.0,
        0.0
      ],
      "type": "VEC2"
    },
    {
      "bufferView": 1,
      "byteOffset": 35848,
      "componentType": 5126,
      "count": 128,
      "max": [
        0.0,
        0.0
      ],
      "min": [
        0.0,
        0.0
      ],
      "type": "VEC2"
    },
    {
      "bufferView": 0,
      "byteOffset": 92256,
      "componentType": 5125,
      "count": 384,
      "type": "SCALAR"
    },
    {
      "bufferView": 2,
      "byteOffset": 98328,
      "componentType": 5126,
      "count": 1408,
      "max": [
        0.5524834394454956,
        0.06493110209703445,
        1.0555365085601807
      ],
      "min": [
        -0.5388137102127075,
        -0.06493113934993744,
        -1.0555365085601807
      ],
      "type": "VEC3"
    },
    {
      "bufferView": 2,
      "byteOffset": 115224,
      "componentType": 5126,
      "count": 1408,
      "max": [
        1.0,
        0.9952356219291687,
        0.9952380061149597
      ],
      "min": [
        -1.0,
        -0.9952357411384583,
        -0.9952380061149597
      ],
      "type": "VEC3"
    },
    {
      "bufferView": 1,
      "byteOffset": 36872,
      "componentType": 5126,
      "count": 1408,
      "max": [
        0.0,
        0.0
      ],
      "min": [
        0.0,
        0.0
      ],
      "type": "VEC2"
    },
    {
      "bufferView": 1,
      "byteOffset": 48136,
      "componentType": 5126,
      "count": 1408,
      "max": [
        0.0,
        0.0
      ],
      "min": [
        0.0,
        0.0
      ],
      "type": "VEC2"
    },
    {
      "bufferView": 0,
      "byteOffset": 93792,
      "componentType": 5125,
      "count": 8040,
      "type": "SCALAR"
    },
    {
      "bufferView": 2,
      "byteOffset": 132120,
      "componentType": 5126,
      "count": 192,
      "max": [
        0.15260884165763855,
        0.5630426406860352,
        0.15260884165763855
      ],
      "min": [
        -0.15260884165763855,
        -0.015797574073076248,
        -0.15260884165763855
      ],
      "type": "VEC3"
    },
    {
      "bufferView": 2,
      "byteOffset": 134424,
      "componentType": 5126,
      "count": 192,
      "max": [
        0.9390711188316345,
        0.9390712976455688,
        0.9390710592269897
      ],
      "min": [
        -0.9390711188316345,
        -0.9390711188316345,
        -0.9390710592269897
      ],
      "type": "VEC3"
    },
    {
      "bufferView": 1,
      "byteOffset": 59400,
      "componentType": 5126,
      "count": 192,
      "max": [
        0.875,
        1.0
      ],
      "min": [
        0.125,
        0.0
      ],
      "type": "VEC2"
    },
    {
      "bufferView": 0,
      "byteOffset": 125952,
      "componentType": 5125,
      "count": 288,
      "type": "SCALAR"
    },
    {
      "bufferView": 2,
      "byteOffset": 136728,
      "componentType": 5126,
      "count": 76,
      "max": [
        0.1368112564086914,
        0.5486131906509399,
        0.1368112564086914
      ],
      "min": [
        -0.1368112564086914,
        0.0,
        -0.1368112564086914
      ],
      "type": "VEC3"
    },
    {
      "bufferView": 2,
      "byteOffset": 137640,
      "componentType": 5126,
      "count": 76,
      "max": [
        1.0,
        1.0,
        1.0
      ],
      "min": [
        -1.0,
        -1.0,
        -1.0
      ],
      "type": "VEC3"
    },
    {
      "bufferView": 1,
      "byteOffset": 60936,
      "componentType": 5126,
      "count": 76,
      "max": [
        0.7501436471939087,
        0.9999043345451355
      ],
      "min": [
        9.569236863171682e-05,
        9.569236863171682e-05
      ],
      "type": "VEC2"
    },
    {
      "bufferView": 0,
      "byteOffset": 127104,
      "componentType": 5125,
      "count": 132,
      "type": "SCALAR"
    },
    {
      "bufferView": 2,
      "byteOffset": 138552,
      "componentType": 5126,
      "count": 65532,
      "max": [
        0.14675819873809814,
        0.5499313473701477,
        0.4241679310798645
      ],
      "min": [
        -0.1467582881450653,
        0.000569809868466109,
        0.13065128028392792
      ],
      "type": "VEC3"
    },
    {
      "bufferView": 2,
      "byteOffset": 924936,
      "componentType": 5126,
      "count": 65532,
      "max": [
        0.9239007830619812,
        0.6539660692214966,
        0.9238977432250977
      ],
      "min": [
        -0.9239140152931213,
        -0.6533262729644775,
        -0.9239037036895752
      ],
      "type": "VEC3"
    },
    {
      "bufferView": 1,
      "byteOffset": 61544,
      "componentType": 5126,
      "count": 65532,
      "max": [
        1.0,
        1.0
      ],
      "min": [
        0.0,
        0.5010699033737183
      ],
      "type": "VEC2"
    },
    {
      "bufferView": 0,
      "byteOffset": 127632,
      "componentType": 5125,
      "count": 98298,
      "type": "SCALAR"
    },
    {
      "bufferView": 2,
      "byteOffset": 1711320,
      "componentType": 5126,
      "count": 3588,
      "max": [
        -0.13922998309135437,
        0.5499312281608582,
        0.4234541654586792
      ],
      "min": [
        -0.1419670134782791,
        0.0005698897875845432,
        0.13065128028392792
      ],
      "type": "VEC3"
    },
    {
      "bufferView": 2,
      "byteOffset": 1754376,
      "componentType": 5126,
      "count": 3588,
      "max": [
        0.9238911271095276,
        0.6533396244049072,
        0.9222184419631958
      ],
      "min": [
        -0.9238971471786499,
        -0.6533117294311523,
        -0.9222191572189331
      ],
      "type": "VEC3"
    },
    {
      "bufferView": 1,
      "byteOffset": 585800,
      "componentType": 5126,
      "count": 3588,
      "max": [
        1.0,
        1.0
      ],
      "min": [
        0.0,
        0.5010704398155212
      ],
      "type": "VEC2"
    },
    {
      "bufferView": 0,
      "byteOffset": 520824,
      "componentType": 5125,
      "count": 5382,
      "type": "SCALAR"
    }
  ],
  "asset": {
    "extras": {
      "author": "Tahir.Muhamad.Ajmal. (https://sketchfab.com/Tahir.Muhamad.Ajmal.)",
      "license": "CC-BY-4.0 (http://creativecommons.org/licenses/by/4.0/)",
      "source": "https://sketchfab.com/3d-models/chinese-painting-f0bdcca352b44d06a122a3dec17c68bb",
      "title": "Chinese painting"
    },
    "generator": "Sketchfab-15.22.0",
    "version": "2.0"
  },
  "bufferViews": [
    {
      "buffer": 0,
      "byteLength": 542352,
      "name": "floatBufferViews",
      "target": 34963
    },
    {
      "buffer": 0,
      "byteLength": 614504,
      "byteOffset": 542352,
      "byteStride": 8,
      "name": "floatBufferViews",
      "target": 34962
    },
    {
      "buffer": 0,
      "byteLength": 1797432,
      "byteOffset": 1156856,
      "byteStride": 12,
      "name": "floatBufferViews",
      "target": 34962
    },
    {
      "buffer": 0,
      "byteLength": 2048,
      "byteOffset": 2954288,
      "byteStride": 16,
      "name": "floatBufferViews",
      "target": 34962
    }
  ],
  "buffers": [
    {
      "byteLength": 2956336,
      "uri": "scene.bin"
    }
  ],
  "images": [
    {
      "uri": "textures/Material_baseColor.jpeg"
    },
    {
      "uri": "textures/Wood_baseColor.jpeg"
    },
    {
      "uri": "textures/Wood_metallicRoughness.png"
    },
    {
      "uri": "textures/Wood_normal.jpeg"
    }
  ],
  "materials": [
    {
      "doubleSided": true,
      "name": "Material",
      "pbrMetallicRoughness": {
        "baseColorTexture": {
          "index": 0
        },
        "roughnessFactor": 0.7664785264107471
      }
    },
    {
      "doubleSided": true,
      "name": "Wood",
      "normalTexture": {
        "index": 3
      },
      "pbrMetallicRoughness": {
        "baseColorTexture": {
          "index": 1
        },
        "metallicRoughnessTexture": {
          "index": 2
        }
      }
    },
    {
      "doubleSided": true,
      "name": "Material.002",
      "pbrMetallicRoughness": {
        "baseColorFactor": [
          1.0,
          0.545724,
          0.093059,
          1.0
        ],
        "roughnessFactor": 0.0
      }
    },
    {
      "doubleSided": true,
      "name": "Material.001",
      "pbrMetallicRoughness": {
        "baseColorFactor": [
          0.00807583,
          0.00807583,
          0.00807583,
          1.0
        ],
        "metallicFactor": 0.0,
        "roughnessFactor": 0.4
      }
    },
    {
      "doubleSided": true,
      "emissiveFactor": [
        0.9213560469775335,
        1.0,
        0.0
      ],
      "name": "Shade",
      "pbrMetallicRoughness": {
        "baseColorFactor": [
          0.5400397410734966,
          0.5400397410734966,
          0.5400397410734966,
          1.0
        ],
        "metallicFactor": 0.30933427606636515
      }
    }
  ],
  "meshes": [
    {
      "name": "Object_0",
      "primitives": [
        {
          "attributes": {
            "NORMAL": 1,
            "POSITION": 0,
            "TEXCOORD_0": 2
          },
          "indices": 3,
          "material": 0,
          "mode": 4
        }
      ]
    },
    {
      "name": "Object_1",
      "primitives": [
        {
          "attributes": {
            "NORMAL": 5,
            "POSITION": 4,
            "TANGENT": 6,
            "TEXCOORD_0": 7,
            "TEXCOORD_1": 8,
            "TEXCOORD_2": 9,
            "TEXCOORD_3": 10,
            "TEXCOORD_4": 11
          },
          "indices": 12,
          "material": 1,
          "mode": 4
        }
      ]
    },
    {
      "name": "Object_2",
      "primitives": [
        {
          "attributes": {
            "NORMAL": 14,
            "POSITION": 13,
            "TEXCOORD_0": 15,
            "TEXCOORD_1": 16
          },
          "indices": 17,
          "material": 2,
          "mode": 4
        }
      ]
    },
    {
      "name": "Object_3",
      "primitives": [
        {
          "attributes": {
            "NORMAL": 19,
            "POSITION": 18,
            "TEXCOORD_0": 20
          },
          "indices": 21,
          "material": 3,
          "mode": 4
        }
      ]
    },
    {
      "name": "Object_4",
      "primitives": [
        {
          "attributes": {
            "NORMAL": 23,
            "POSITION": 22,
            "TEXCOORD_0": 24
          },
          "indices": 25,
          "material": 4,
          "mode": 4
        }
      ]
    },
    {
      "name": "Object_5",
      "primitives": [
        {
          "attributes": {
            "NORMAL": 27,
            "POSITION": 26,
            "TEXCOORD_0": 28
          },
          "indices": 29,
          "material": 3,
          "mode": 4
        }
      ]
    },
    {
      "name": "Object_6",
      "primitives": [
        {
          "attributes": {
            "NORMAL": 31,
            "POSITION": 30,
            "TEXCOORD_0": 32
          },
          "indices": 33,
          "material": 3,
          "mode": 4
        }
      ]
    }
  ],
  "nodes": [
    {
      "children": [
        1
      ],
      "matrix": [
        1.0,
        0.0,
        0.0,
        0.0,
        0.0,
        2.220446049250313e-16,
        -1.0,
        0.0,
        0.0,
        1.0,
        2.220446049250313e-16,
        0.0,
        0.0,
        0.0,
        0.0,
        1.0
      ],
      "name": "Sketchfab_model"
    },
    {
      "children": [
        2
      ],
      "name": "root"
    },
    {
      "children": [
        3,
        5,
        8
      ],
      "matrix": [
        1.0,
        0.0,
        0.0,
        0.0,
        0.0,
        2.220446049250313e-16,
        1.0,
        0.0,
        0.0,
        -1.0,
        2.220446049250313e-16,
        0.0,
        0.0,
        0.0,
        0.0,
        1.0
      ],
      "name": "GLTF_SceneRootNode"
    },
    {
      "children": [
        4
      ],
      "matrix": [
        1.0,
        0.0,
        0.0,
        0.0,
        0.0,
        1.0,
        0.0,
        0.0,
        0.0,
        0.0,
        1.0,
        0.0,
        0.029325904324650764,
        -0.07229676097631454,
        0.0,
        1.0
      ],
      "name": "Plane_2"
    },
    {
      "mesh": 0,
      "name": "Object_4"
    },
    {
      "children": [
        6,
        7
      ],
      "matrix": [
        1.0,
        0.0,
        0.0,
        0.0,
        0.0,
        1.0,
        0.0,
        0.0,
        0.0,
        0.0,
        1.0,
        0.0,
        0.0,
        -0.07272303849458694,
        0.0,
        1.0
      ],
      "name": "Circle_3"
    },
    {
      "mesh": 1,
      "name": "Object_6"
    },
    {
      "mesh": 2,
      "name": "Object_7"
    },
    {
      "children": [
        9,
        11,
        13
      ],
      "matrix": [
        -0.9999999999999885,
        0.0,
        1.5099580252808577e-07,
        0.0,
        -0.0,
        1.0,
        0.0,
        0.0,
        -1.5099580252808577e-07,
        -0.0,
        -0.9999999999999885,
        0.0,
        -0.9381338953971863,
        -0.08660267293453217,
        -0.10210584104061127,
        1.0
      ],
      "name": "Crisscross Lamp_8"
    },
    {
      "children": [
        10
      ],
      "matrix": [
        1.0,
        0.0,
        0.0,
        0.0,
        0.0,
        1.0,
        0.0,
        0.0,
        0.0,
        0.0,
        1.0,
        0.0,
        0.0,
        0.01579757034778595,
        0.0,
        1.0
      ],
      "name": "Frame_4"
    },
    {
      "mesh": 3,
      "name": "Object_10"
    },
    {
      "children": [
        12
      ],
      "matrix": [
        1.0,
        0.0,
        0.0,
        0.0,
        0.0,
        1.0,
        0.0,
        0.0,
        0.0,
        0.0,
        1.0,
        0.0,
        0.0,
        0.01579757034778595,
        0.0,
        1.0
      ],
      "name": "Shade_6"
    },
    {
      "mesh": 4,
      "name": "Object_12"
    },
    {
      "children": [
        14,
        15
      ],
      "matrix": [
        1.0,
        0.0,
        0.0,
        0.0,
        -0.0,
        -0.9999999999999467,
        -3.258413698858844e-07,
        0.0,
        0.0,
        3.258413698858844e-07,
        -0.9999999999999467,
        0.0,
        0.0,
        0.5578298568725586,
        0.27740979194641113,
        1.0
      ],
      "name": "Wires_7"
    },
    {
      "mesh": 5,
      "name": "Object_14"
    },
    {
      "mesh": 6,
      "name": "Object_15"
    }
  ],
  "samplers": [
    {
      "magFilter": 9729,
      "minFilter": 9987,
      "wrapS": 10497,
      "wrapT": 10497
    }
  ],
  "scene": 0,
  "scenes": [
    {
      "name": "Sketchfab_Scene",
      "nodes": [
        0
      ]
    }
  ],
  "textures": [
    {
      "sampler": 0,
      "source": 0
    },
    {
      "sampler": 0,
      "source": 1
    },
    {
      "sampler": 0,
      "source": 2
    },
    {
      "sampler": 0,
      "source": 3
    }
  ]
}
